<?xml version="1.0" standalone="no"?>
<!DOCTYPE svg PUBLIC "-//W3C//DTD SVG 20010904//EN"
 "http://www.w3.org/TR/2001/REC-SVG-20010904/DTD/svg10.dtd">
<svg version="1.0" xmlns="http://www.w3.org/2000/svg"
 width="512.000000pt" height="512.000000pt" viewBox="0 0 512.000000 512.000000"
 preserveAspectRatio="xMidYMid meet">

<g transform="translate(0.000000,512.000000) scale(0.100000,-0.100000)"
fill="#000000" stroke="none">
<path d="M4740 4664 c-91 -24 -219 -92 -273 -146 -26 -26 -60 -74 -75 -106
-24 -50 -27 -69 -27 -157 0 -86 4 -107 25 -150 36 -74 92 -124 227 -203 67
-40 135 -83 151 -97 42 -35 72 -102 72 -157 0 -58 -24 -89 -125 -159 -42 -29
-78 -62 -84 -78 -21 -50 14 -101 69 -101 27 0 174 105 222 158 53 59 72 117
66 206 -9 145 -82 237 -270 342 -115 65 -175 114 -195 161 -17 42 -17 125 1
168 34 80 157 156 301 185 75 15 95 32 95 80 0 69 -57 86 -180 54z"/>
<path d="M2590 4100 c-17 -17 -20 -33 -20 -104 l0 -83 -44 -17 c-106 -41 -185
-150 -194 -268 -3 -47 -9 -68 -18 -68 -20 0 -83 -58 -101 -94 -11 -19 -17 -60
-19 -110 l-2 -78 -38 -18 c-46 -20 -88 -63 -103 -103 -6 -16 -11 -63 -11 -106
0 -64 5 -87 25 -124 l24 -47 -52 -30 c-65 -37 -123 -46 -201 -32 -87 16 -184
66 -389 200 -364 238 -502 298 -703 309 -218 12 -431 -71 -576 -225 -174 -185
-217 -447 -106 -655 62 -116 149 -183 283 -217 140 -36 267 -22 387 42 74 39
108 78 108 123 0 85 -47 125 -148 125 -69 0 -103 14 -143 57 -40 42 -51 71
-51 126 0 61 36 117 105 164 92 62 184 52 298 -34 85 -64 163 -161 292 -363
313 -490 569 -750 893 -907 55 -27 113 -53 130 -59 30 -11 31 -14 36 -78 4
-46 15 -86 35 -126 l29 -59 -52 -21 c-127 -52 -285 -186 -349 -295 -24 -39
-31 -45 -61 -45 -39 0 -99 -23 -127 -48 -40 -36 -57 -87 -57 -171 0 -90 10
-124 48 -164 54 -57 52 -57 432 -57 337 0 351 1 370 20 33 33 23 97 -17 116
-10 5 -166 11 -348 14 l-330 5 -3 53 c-2 31 2 60 9 68 10 12 133 14 815 14
784 0 804 0 814 -19 13 -25 13 -77 0 -102 -10 -18 -24 -19 -325 -19 -193 0
-324 -4 -341 -10 -55 -21 -69 -68 -33 -114 l20 -26 351 0 c344 0 351 0 390 22
24 14 51 41 66 68 24 39 27 56 27 130 -1 90 -13 126 -57 167 -31 29 -89 53
-130 53 -29 0 -37 7 -68 55 -39 63 -136 163 -201 207 -24 17 -75 46 -114 64
-38 19 -70 38 -69 42 0 4 10 30 23 57 12 28 26 76 29 108 l7 58 100 33 c165
54 409 190 485 271 47 50 19 125 -46 125 -26 0 -55 -16 -121 -65 -152 -112
-337 -192 -539 -231 -113 -23 -368 -25 -469 -5 -245 49 -454 164 -663 366
-144 138 -246 268 -438 557 -233 350 -351 468 -518 520 -132 40 -250 9 -363
-96 -86 -79 -118 -146 -118 -246 1 -60 6 -86 27 -130 36 -78 89 -134 158 -169
l60 -30 -54 -6 c-102 -13 -212 17 -279 75 -80 71 -120 204 -98 325 34 181 156
312 356 381 67 23 97 28 185 28 149 0 258 -35 440 -142 180 -105 274 -174 337
-247 226 -264 531 -440 866 -502 139 -26 404 -23 572 6 351 61 633 203 1010
509 157 128 486 257 705 277 l65 5 30 -62 c30 -64 44 -77 159 -151 79 -51 73
-57 -51 -57 -265 0 -500 -69 -651 -190 -34 -27 -132 -139 -244 -280 -206 -257
-216 -276 -162 -319 55 -43 81 -26 220 152 254 321 295 361 433 415 130 52
216 65 421 67 202 1 218 5 250 58 26 43 25 78 -5 142 -29 61 -90 121 -168 165
-51 28 -87 74 -87 109 0 21 -62 80 -97 92 -77 25 -306 -15 -501 -87 -53 -20
-182 -77 -287 -127 -282 -133 -360 -166 -449 -188 -131 -31 -250 -21 -322 26
l-26 17 21 15 c42 29 65 91 65 179 0 106 -29 161 -104 196 l-49 23 -1 64 c0
35 -5 81 -12 102 -13 46 -68 106 -103 115 -23 6 -25 11 -25 58 0 29 -7 74 -16
100 -22 63 -100 148 -163 175 l-49 21 -3 84 c-3 65 -8 89 -23 105 -25 27 -79
28 -106 1z m120 -352 c58 -30 90 -78 90 -134 l0 -44 -161 0 -162 0 5 49 c6 61
38 108 92 132 54 24 82 24 136 -3z m218 -340 c17 -17 15 -103 -2 -117 -9 -8
-95 -11 -292 -9 l-279 3 -3 54 c-2 29 -1 60 2 67 7 19 555 21 574 2z m143
-288 c15 -9 19 -22 19 -63 0 -29 -5 -58 -12 -65 -16 -16 -839 -17 -869 -2 -15
9 -19 22 -19 66 0 47 3 56 23 64 32 13 833 13 858 0z m-57 -325 c66 -86 179
-134 336 -144 l105 -7 -125 -61 c-146 -72 -313 -125 -466 -148 -141 -22 -390
-22 -504 -1 -159 29 -325 94 -465 183 l-60 38 88 6 c73 5 99 12 160 42 40 20
92 56 117 81 l44 46 372 0 372 0 26 -35z m-321 -1360 c206 1 199 3 171 -63
-36 -87 -123 -144 -219 -145 -101 0 -180 48 -221 138 -37 79 -34 87 29 78 28
-4 136 -8 240 -8z m-183 -341 c70 -27 210 -25 277 5 l52 23 63 -21 c110 -36
267 -143 299 -202 9 -19 -5 -19 -561 -19 l-571 0 26 34 c52 68 191 157 300
192 44 14 48 14 115 -12z"/>
</g>
</svg>
