<?xml version="1.0" standalone="no"?>
<!DOCTYPE svg PUBLIC "-//W3C//DTD SVG 20010904//EN"
 "http://www.w3.org/TR/2001/REC-SVG-20010904/DTD/svg10.dtd">
<svg version="1.0" xmlns="http://www.w3.org/2000/svg"
 width="6000.000000pt" height="4500.000000pt" viewBox="0 0 6000.000000 4500.000000"
 preserveAspectRatio="xMidYMid meet">

<g transform="translate(0.000000,4500.000000) scale(0.100000,-0.100000)"
fill="#000000" stroke="none">
<path d="M28785 36251 c-76 -46 -198 -217 -311 -437 -55 -105 -61 -123 -36
-94 17 19 37 42 45 50 8 8 17 23 20 33 4 10 11 15 17 12 5 -3 10 2 10 11 0 10
7 24 15 33 108 114 202 201 217 201 4 0 8 4 8 9 0 29 137 34 153 6 4 -9 12
-13 18 -10 5 4 16 -1 25 -9 8 -9 21 -16 29 -16 7 0 26 -15 41 -34 16 -18 41
-47 55 -64 15 -17 28 -29 31 -27 2 2 13 -12 23 -33 11 -20 29 -46 39 -57 26
-27 -56 121 -122 223 -91 139 -177 222 -229 222 -10 0 -31 -8 -48 -19z"/>
<path d="M27915 34476 c-20 -47 -80 -247 -110 -367 -72 -283 -95 -445 -95
-667 0 -530 116 -923 339 -1149 l52 -52 -43 -11 c-271 -70 -458 -139 -683
-252 -269 -135 -574 -345 -718 -497 -32 -34 -60 -61 -62 -61 -10 0 -52 -49
-47 -54 3 -3 1 -6 -5 -6 -5 0 -20 -9 -33 -20 -13 -11 -19 -20 -15 -20 4 0 -5
-13 -21 -28 -16 -16 -56 -59 -89 -97 -33 -38 -68 -76 -77 -86 -9 -10 -22 -27
-28 -39 -6 -12 -18 -29 -26 -38 -39 -45 -104 -132 -104 -139 0 -5 -8 -18 -17
-29 -10 -11 -31 -44 -46 -74 -16 -30 -42 -73 -57 -95 -30 -41 -80 -129 -81
-142 -1 -16 -33 -78 -43 -85 -6 -4 -8 -8 -3 -8 4 0 -4 -21 -17 -47 -31 -59
-50 -106 -48 -115 1 -5 -3 -8 -10 -8 -6 0 -9 -3 -5 -6 3 -3 -6 -32 -19 -63
-14 -31 -27 -65 -28 -77 -2 -11 -10 -36 -19 -54 -10 -18 -17 -41 -17 -51 0
-10 -5 -30 -12 -46 -6 -15 -12 -32 -13 -38 -1 -5 -3 -12 -4 -15 -3 -7 -11 -40
-15 -65 -2 -11 -8 -38 -14 -60 -12 -44 -14 -56 -38 -195 -8 -52 -17 -106 -20
-120 -2 -14 -7 -57 -10 -97 l-6 -72 40 -20 c47 -24 150 -53 275 -77 l87 -17
-6 -51 c-30 -238 -161 -556 -360 -875 -168 -269 -360 -518 -753 -981 -303
-356 -307 -361 -392 -475 -125 -168 -181 -292 -159 -349 60 -158 828 -330
2060 -460 807 -86 1483 -125 2270 -133 680 -6 1139 8 1755 57 908 72 1954 213
2335 315 l55 14 -50 -6 c-27 -3 -60 -6 -72 -7 -13 0 -23 -4 -23 -7 0 -3 -38
-11 -84 -18 -46 -6 -107 -17 -137 -25 -30 -8 -86 -17 -125 -20 -176 -17 -214
-21 -224 -26 -7 -3 -17 -5 -100 -14 -41 -5 -84 -10 -95 -12 -11 -2 -94 -12
-185 -24 -90 -11 -189 -24 -219 -30 -30 -5 -77 -10 -104 -10 -27 0 -95 -7
-151 -15 -55 -8 -137 -16 -181 -19 -44 -2 -118 -9 -165 -15 -47 -6 -132 -13
-190 -15 -58 -3 -116 -8 -129 -10 -13 -3 -157 -10 -320 -16 -163 -6 -316 -13
-341 -16 -25 -3 -173 -7 -330 -9 -887 -9 -1318 -2 -1985 35 -93 5 -188 9 -210
9 -82 1 -551 42 -580 51 -16 5 -64 10 -105 11 -88 1 -507 45 -565 59 -72 17
-100 21 -187 25 -47 3 -141 16 -209 30 -68 15 -146 30 -174 34 -27 5 -93 18
-145 30 -52 11 -112 21 -133 21 -21 0 -53 6 -71 14 -19 8 -78 24 -132 37 -55
12 -143 42 -198 66 -54 23 -104 43 -111 43 -16 0 -69 49 -62 57 4 3 0 18 -8
33 -23 45 7 54 156 45 68 -4 142 -9 164 -10 58 -3 161 -15 230 -27 33 -5 133
-11 221 -12 129 -2 161 0 157 11 -3 7 5 24 16 39 12 15 21 21 21 14 0 -10 3
-10 15 0 8 7 15 18 15 25 0 6 18 18 40 25 21 7 37 16 35 20 -3 5 1 11 8 14 6
3 30 17 52 31 22 13 61 36 88 50 26 14 47 30 47 35 0 6 8 10 19 10 10 0 31 16
45 35 15 19 33 35 41 35 19 0 116 96 154 152 17 26 39 53 49 60 9 7 18 20 20
28 2 8 14 29 28 47 13 17 24 34 24 38 0 6 41 67 51 75 4 3 9 15 13 28 4 12 11
22 16 22 5 0 18 20 29 45 11 24 24 50 30 57 41 48 51 63 51 75 0 7 12 26 28
42 15 16 38 44 52 61 41 53 84 90 103 90 10 0 16 4 13 9 -3 5 6 12 22 16 15 3
41 13 57 20 30 14 111 39 130 40 6 0 17 5 25 10 8 5 22 10 30 12 8 1 31 5 50
9 19 4 39 6 44 5 4 -1 13 3 20 8 6 5 45 14 88 20 42 6 87 15 100 20 12 5 50
15 83 22 33 6 69 18 81 25 11 6 34 13 50 15 16 2 34 7 40 11 6 4 24 10 40 12
16 2 36 6 44 10 8 3 26 8 40 10 14 3 25 5 25 6 0 1 7 3 15 5 9 1 36 11 60 22
25 11 61 26 80 33 19 7 53 20 75 31 76 34 113 49 123 49 6 0 37 11 69 24 32
13 84 34 116 47 31 12 57 26 57 30 0 4 21 15 48 25 26 10 63 28 82 39 19 12
41 20 47 18 7 -3 41 11 75 29 35 19 77 42 93 51 132 71 387 181 471 202 54 14
105 32 114 40 8 8 24 14 35 14 11 1 40 3 65 6 25 3 52 6 60 7 8 0 20 4 25 9
18 14 304 19 430 8 66 -6 136 -12 155 -13 19 -1 40 -4 45 -8 21 -12 237 -63
310 -72 17 -2 47 -11 68 -20 20 -9 37 -14 37 -11 0 3 21 -6 47 -20 27 -14 55
-25 63 -25 9 0 22 -6 29 -12 10 -10 15 -10 18 -1 4 11 18 6 188 -65 39 -16 77
-29 85 -29 8 0 45 -14 82 -32 66 -31 86 -38 141 -46 15 -2 33 -8 40 -12 6 -4
21 -9 32 -10 10 -2 29 -10 40 -17 11 -7 41 -14 65 -14 25 0 70 -4 102 -7 38
-5 64 -3 80 6 26 14 34 17 63 21 11 2 26 8 32 15 20 18 34 264 17 302 -17 39
-23 144 -12 221 5 36 10 75 11 88 1 12 6 22 10 22 5 0 6 4 3 9 -3 5 10 19 29
32 19 13 37 29 39 36 3 7 -2 51 -12 98 -13 71 -14 90 -3 107 7 11 11 22 9 24
-2 2 -46 -3 -98 -11 -337 -51 -1117 -104 -1870 -126 -579 -17 -2205 -1 -2035
21 81 10 312 13 326 4 5 -3 9 0 9 7 0 8 3 9 13 0 8 -6 16 -8 19 -5 8 8 155 18
271 18 53 1 97 5 97 9 0 4 33 7 73 6 120 -2 181 6 172 22 -4 5 1 9 9 9 43 0
26 39 -57 130 -18 19 -34 40 -36 45 -9 21 -59 64 -66 57 -5 -4 -5 1 -1 12 5
14 2 17 -9 12 -10 -4 -15 1 -15 14 0 11 -7 20 -15 20 -8 0 -15 5 -15 11 0 5
-5 7 -10 4 -6 -4 -9 -1 -8 6 2 7 -7 17 -19 24 -52 27 -94 70 -60 61 6 -1 9 -1
5 1 -4 3 -10 4 -13 4 -3 -1 -32 26 -64 59 -32 33 -63 60 -68 60 -5 0 -31 20
-58 44 -27 25 -52 43 -56 40 -4 -2 -10 3 -13 12 -3 8 -10 12 -16 9 -5 -3 -10
-1 -10 6 0 7 -3 9 -6 6 -7 -6 -51 22 -85 53 -33 30 -63 50 -77 50 -8 0 -37 15
-64 33 -28 17 -53 32 -57 32 -10 0 -71 58 -66 63 2 2 -3 11 -11 19 -8 8 -12
19 -8 24 3 6 0 16 -6 24 -17 20 -15 163 2 181 4 3 4 12 2 19 -3 7 0 16 5 20 6
3 9 10 6 15 -3 5 -1 11 4 15 6 3 8 12 4 20 -3 8 0 15 7 15 6 0 8 5 5 11 -4 5
1 19 11 30 9 10 14 19 11 19 -4 0 -2 11 3 25 8 21 5 27 -20 41 l-29 17 21 41
c25 50 33 56 79 56 34 0 38 3 65 57 16 32 36 65 44 73 26 28 65 82 62 87 -2 3
6 13 17 22 12 10 21 21 21 25 0 3 19 26 43 49 23 23 56 58 73 77 17 19 48 49
69 65 69 54 153 133 147 139 -5 5 5 7 24 5 3 0 11 7 17 16 7 8 26 19 42 23 17
5 30 13 30 19 0 6 4 15 9 20 5 5 6 2 1 -6 -5 -9 -3 -12 6 -9 8 3 13 10 12 17
-2 6 8 13 22 17 14 3 25 10 25 14 0 9 48 41 66 44 7 1 52 33 101 72 85 67 139
100 157 95 5 -1 21 2 37 8 21 7 31 6 40 -5 6 -8 18 -14 27 -14 22 0 82 23 82
31 0 4 14 12 31 20 18 7 42 23 55 36 13 13 37 26 54 29 16 4 27 10 25 14 -3 5
4 11 14 15 11 3 23 15 26 26 4 10 13 19 21 19 8 0 14 3 14 8 0 4 14 16 30 27
16 11 30 24 30 28 0 15 25 34 38 29 6 -2 12 1 12 6 0 6 9 14 20 17 11 3 20 12
20 18 0 7 10 21 23 31 12 10 32 27 43 38 12 11 33 21 46 22 13 2 38 16 56 33
19 17 52 36 75 43 23 7 44 15 47 19 9 12 85 48 114 55 23 6 27 9 15 17 -7 5
-12 9 -9 10 3 0 21 3 40 6 19 2 36 6 37 7 5 5 -303 86 -324 86 -12 0 -25 -4
-28 -10 -3 -5 -15 -15 -25 -20 -18 -10 -19 -8 -11 12 35 88 43 119 45 179 0
27 -2 49 -6 49 -5 0 -8 10 -8 23 0 52 -44 162 -61 152 -5 -4 -8 -2 -7 3 2 5
-12 26 -30 46 -18 20 -30 36 -27 36 19 0 -28 30 -61 39 -26 7 -46 22 -62 44
-17 26 -28 33 -45 30 -12 -2 -43 4 -68 15 -26 11 -57 18 -73 15 -56 -11 -216
60 -216 96 0 4 -11 13 -24 20 -22 12 -86 135 -86 167 0 8 -4 14 -8 14 -4 0
-16 24 -26 53 -9 28 -27 75 -38 102 -33 81 -35 87 -47 147 -11 53 -61 144 -88
161 -7 4 -13 15 -13 22 0 8 -4 15 -10 15 -5 0 -10 9 -10 20 0 23 -64 144 -92
174 -9 10 -15 23 -12 28 3 4 -2 8 -10 8 -8 0 -32 21 -52 48 -21 26 -43 52 -50
57 -6 6 -14 20 -18 33 -7 20 -12 23 -31 22 -14 -1 -135 133 -135 150 0 10 -6
23 -13 27 -12 7 -23 27 -25 46 -2 11 -29 37 -39 37 -5 0 -19 18 -33 40 -14 22
-28 40 -32 40 -4 0 -10 10 -14 23 -4 12 -18 37 -32 54 -13 18 -22 40 -18 48
11 31 -5 14 -19 -19z m-276 -5381 c2 -3 -29 -4 -70 -4 -59 1 -67 3 -39 9 34 7
99 4 109 -5z m-1159 -560 c71 -7 151 -28 190 -50 14 -8 21 -14 17 -15 -4 0 1
-10 12 -22 11 -11 19 -24 17 -27 -3 -4 0 -29 5 -56 5 -28 12 -63 14 -78 3 -15
-1 -42 -9 -60 -8 -18 -19 -54 -25 -82 -10 -53 -56 -161 -72 -170 -5 -4 -7 -11
-3 -16 3 -5 0 -17 -7 -25 -6 -8 -9 -17 -6 -20 4 -5 -60 -68 -101 -99 -7 -5
-18 -15 -25 -21 -12 -10 -62 -34 -138 -67 -135 -58 -312 -77 -365 -40 -16 11
-34 19 -39 17 -6 -2 -19 12 -29 31 -11 19 -24 35 -29 35 -24 0 10 260 42 320
4 8 7 23 5 33 -1 9 2 17 7 17 5 0 9 9 9 20 0 11 5 20 10 20 6 0 10 7 10 15 0
9 7 30 16 46 8 17 17 39 19 48 5 27 83 151 116 183 18 18 50 35 86 44 32 8 63
20 68 25 10 10 41 9 205 -6z"/>
<path d="M30030 32090 c8 -5 20 -10 25 -10 6 0 3 5 -5 10 -8 5 -19 10 -25 10
-5 0 -3 -5 5 -10z"/>
<path d="M28835 31509 c-10 -15 3 -25 16 -12 7 7 7 13 1 17 -6 3 -14 1 -17 -5z"/>
<path d="M9385 30263 c-224 -16 -615 -77 -765 -120 -30 -8 -109 -28 -175 -43
-204 -49 -266 -66 -395 -114 -69 -26 -159 -58 -200 -72 -70 -24 -129 -49 -260
-112 -30 -15 -57 -27 -60 -28 -14 -2 -249 -119 -272 -136 -16 -11 -28 -16 -28
-11 0 4 -4 4 -8 -2 -4 -5 -25 -19 -47 -30 -22 -10 -62 -33 -90 -51 -27 -17
-72 -44 -98 -60 -132 -79 -350 -230 -393 -271 -7 -7 -16 -13 -19 -13 -4 0 -17
-9 -29 -20 -36 -33 -134 -110 -140 -110 -3 0 -14 -8 -24 -17 -33 -32 -127
-117 -202 -183 -81 -71 -150 -141 -150 -152 0 -5 -7 -8 -16 -8 -8 0 -13 -4
-10 -9 3 -5 -4 -11 -15 -14 -12 -3 -18 -10 -15 -16 8 -12 -23 -51 -40 -51 -18
0 -64 -51 -64 -71 0 -10 -8 -20 -19 -24 -10 -3 -29 -15 -42 -27 l-24 -21 33 5
c17 2 32 1 32 -3 0 -5 -18 -25 -40 -45 -22 -21 -40 -42 -40 -47 0 -6 9 -2 20
9 34 34 48 43 56 36 4 -4 4 -1 0 6 -4 7 -2 12 5 12 7 0 24 10 37 23 21 18 24
19 19 4 -6 -15 -3 -17 16 -12 12 4 26 11 32 16 14 14 37 11 29 -3 -6 -10 -4
-10 8 0 13 10 17 10 21 0 3 -10 9 -8 25 6 12 10 28 16 37 12 10 -3 14 -2 10 5
-6 9 30 26 37 18 3 -3 26 13 130 89 17 12 27 22 22 22 -5 0 9 9 31 20 22 10
60 37 85 59 24 23 48 41 53 41 8 0 137 88 147 101 3 3 16 12 30 19 34 17 160
101 184 122 11 10 56 36 100 59 45 23 100 54 124 70 24 16 45 29 48 29 3 0 18
8 32 18 15 10 46 24 70 32 23 7 47 19 53 27 6 7 20 13 30 13 11 0 19 4 19 8 0
10 61 33 71 26 5 -3 9 -1 9 5 0 5 10 13 23 17 12 3 45 16 72 29 79 35 164 67
180 69 6 1 53 17 105 37 52 20 129 47 170 59 41 13 80 27 86 32 6 4 13 6 16 3
3 -3 21 2 41 10 20 8 50 15 66 15 17 0 50 6 73 14 123 39 152 47 204 51 32 3
71 9 88 14 37 11 159 28 271 37 44 3 102 10 130 15 56 11 120 15 390 30 105 5
195 10 200 10 6 1 30 -1 55 -4 25 -4 142 -11 260 -18 118 -6 235 -12 260 -14
25 -1 95 -14 155 -29 61 -14 133 -29 160 -32 58 -8 65 -9 85 -17 13 -5 76 -18
105 -22 6 -1 21 -5 35 -8 14 -4 111 -27 215 -53 105 -25 217 -56 250 -69 86
-34 227 -86 245 -90 22 -4 177 -76 405 -187 83 -40 92 -45 162 -90 23 -16 45
-28 50 -28 15 0 87 -42 119 -69 61 -51 74 -61 83 -61 5 0 11 -3 13 -8 2 -4 28
-23 58 -42 54 -34 82 -56 144 -115 17 -16 62 -55 99 -85 80 -65 253 -238 295
-295 17 -22 44 -55 61 -73 17 -19 47 -57 65 -85 18 -29 43 -61 55 -71 11 -11
21 -24 21 -31 0 -7 11 -24 25 -39 14 -15 25 -32 25 -38 0 -5 13 -27 28 -47 38
-48 132 -198 132 -208 0 -5 14 -31 31 -59 18 -27 31 -50 30 -52 -4 -6 71 -155
108 -216 23 -36 41 -73 41 -82 0 -8 7 -26 16 -39 9 -13 17 -30 18 -37 1 -7 12
-32 24 -55 12 -24 20 -43 17 -43 -3 0 6 -22 20 -50 14 -27 25 -56 25 -63 0 -8
59 -132 130 -275 192 -386 318 -663 702 -1542 317 -724 607 -1351 628 -1358 6
-2 8 -8 4 -13 -3 -5 2 -9 12 -9 15 0 15 2 0 25 -9 13 -16 31 -16 40 0 18 -28
77 -41 85 -5 3 -11 42 -15 85 -3 44 -8 83 -11 88 -2 4 1 7 8 7 10 0 10 3 1 12
-7 7 -12 33 -12 58 0 25 -5 61 -11 80 -5 19 -12 73 -15 120 -3 47 -12 110 -20
140 -8 30 -17 66 -20 79 -3 13 -10 34 -16 45 -6 12 -10 22 -9 24 1 1 -3 28
-10 60 -6 31 -12 62 -13 67 -1 6 -5 16 -9 23 -5 6 -5 17 -2 22 4 6 1 18 -6 26
-6 8 -9 17 -6 20 3 3 2 17 -3 30 -6 16 -6 24 1 24 5 0 0 10 -11 22 -12 13 -17
24 -11 26 8 3 -9 87 -23 110 -3 5 -8 27 -12 48 -3 22 -10 44 -16 51 -5 6 -9
20 -8 30 1 10 1 21 0 26 -1 4 -3 10 -4 15 -1 4 -7 16 -13 28 -7 11 -14 40 -17
63 -3 24 -10 49 -16 57 -7 7 -9 18 -5 24 3 5 2 10 -4 10 -5 0 -9 8 -8 19 1 19
-22 81 -50 134 -8 16 -12 31 -9 34 3 3 -4 21 -15 40 -11 18 -17 33 -13 33 4 0
3 5 -4 12 -7 7 -12 20 -12 31 0 10 -5 28 -12 40 -7 12 -14 31 -15 42 -2 11
-19 50 -38 86 -19 37 -31 69 -28 73 4 3 2 6 -3 6 -5 0 -11 12 -12 26 -1 14
-14 49 -30 77 -24 45 -77 162 -112 247 -5 14 -14 32 -20 40 -9 13 -32 66 -34
80 -1 3 -5 11 -9 18 -5 6 -5 12 -2 12 3 0 1 6 -6 13 -10 11 -69 117 -130 235
-13 23 -27 42 -31 42 -5 0 -7 4 -3 9 3 5 -8 33 -25 61 -16 28 -30 54 -30 57 0
3 -10 20 -23 37 -12 17 -29 45 -37 61 -8 17 -25 46 -37 66 -12 20 -20 39 -17
41 2 3 -7 17 -21 32 -14 15 -25 30 -25 34 0 4 -16 31 -35 59 -19 29 -35 57
-35 63 0 5 -3 10 -7 10 -9 0 -40 49 -60 93 -6 15 -17 27 -23 27 -5 0 -10 7
-10 16 0 9 -9 28 -20 42 -12 15 -50 72 -87 127 -36 55 -68 102 -73 105 -4 3
-13 16 -20 29 -7 14 -17 30 -21 35 -5 6 -48 61 -94 121 -47 61 -100 128 -118
149 -18 22 -32 44 -32 49 0 5 -20 30 -45 56 -25 25 -61 68 -79 94 -18 27 -39
51 -47 54 -8 3 -14 11 -14 19 0 7 -22 35 -50 62 -27 27 -50 51 -50 54 0 16
-438 435 -475 455 -12 7 -25 19 -29 28 -3 8 -12 15 -21 15 -8 0 -15 4 -15 8 0
4 -24 26 -52 47 -29 22 -57 45 -61 52 -4 7 -15 13 -23 13 -8 0 -12 5 -9 10 3
6 2 10 -4 10 -6 0 -26 14 -46 31 -19 17 -35 29 -35 26 0 -3 -13 7 -28 21 -16
15 -59 45 -97 66 -37 22 -69 46 -72 53 -3 7 -11 13 -17 13 -7 0 -23 11 -36 25
-13 14 -29 25 -37 25 -7 0 -13 5 -13 11 0 5 -4 7 -10 4 -5 -3 -10 1 -10 9 0 9
-4 16 -9 16 -6 0 -22 11 -37 25 -15 14 -35 25 -45 25 -10 0 -21 9 -24 20 -3
11 -15 20 -26 20 -10 0 -19 4 -19 9 0 5 -21 21 -46 36 -69 41 -40 48 56 14 47
-16 95 -30 108 -31 12 -1 22 -6 22 -11 0 -5 6 -7 13 -4 6 2 19 -1 27 -8 8 -8
62 -36 120 -65 58 -28 112 -55 120 -60 8 -6 31 -18 50 -29 20 -11 58 -38 85
-60 27 -23 55 -41 62 -41 6 0 18 -6 25 -12 25 -23 77 -58 87 -58 5 0 16 -9 23
-19 8 -11 36 -34 64 -53 27 -18 59 -41 69 -51 11 -10 74 -63 140 -118 171
-144 237 -201 260 -226 11 -12 47 -48 80 -80 139 -135 186 -184 289 -298 60
-66 115 -127 122 -135 7 -8 32 -37 56 -65 25 -27 62 -72 83 -100 22 -27 65
-80 97 -116 32 -37 58 -71 58 -75 1 -5 26 -36 56 -69 30 -33 85 -100 123 -150
139 -185 429 -583 482 -660 30 -44 58 -84 62 -90 13 -16 138 -197 257 -372 60
-90 110 -160 110 -156 0 4 8 -7 18 -24 9 -18 26 -43 38 -56 21 -24 38 -57 36
-69 -1 -5 2 -8 7 -8 4 0 39 -46 76 -102 38 -57 72 -104 77 -106 4 -2 8 -8 8
-13 0 -16 72 -119 83 -119 6 0 8 -3 4 -6 -6 -6 71 -126 85 -132 5 -2 8 -8 8
-14 0 -9 90 -139 278 -403 23 -33 48 -71 55 -85 6 -14 17 -29 23 -35 6 -5 53
-71 105 -145 51 -74 106 -148 121 -165 16 -16 45 -55 66 -85 64 -95 243 -322
286 -365 12 -11 46 -49 76 -84 66 -77 152 -165 202 -206 129 -108 226 -185
231 -185 7 0 98 -60 107 -71 3 -3 21 -11 40 -19 19 -7 53 -21 75 -31 22 -9 76
-27 120 -39 96 -26 154 -53 215 -101 25 -20 57 -42 70 -49 14 -7 75 -44 136
-81 62 -38 118 -69 126 -69 7 0 30 -13 49 -29 46 -38 362 -209 399 -215 3 -1
21 -13 40 -27 19 -15 46 -30 60 -34 14 -4 30 -11 35 -16 6 -4 74 -35 150 -68
77 -32 184 -82 238 -111 54 -28 103 -48 109 -44 6 4 8 3 5 -3 -6 -9 32 -33 53
-33 5 0 38 -13 73 -30 36 -16 70 -30 75 -30 5 0 25 -10 43 -23 19 -13 80 -41
134 -61 55 -21 109 -42 120 -47 97 -40 236 -93 310 -119 50 -17 99 -36 110
-41 11 -5 45 -17 75 -28 128 -44 156 -54 170 -66 8 -7 35 -18 60 -25 44 -11
146 -44 185 -60 52 -21 106 -40 127 -44 36 -8 592 -197 603 -205 21 -16 101
-39 135 -40 19 0 114 -27 210 -61 96 -33 190 -60 208 -60 35 0 249 -53 281
-69 22 -11 106 -30 161 -35 94 -10 244 -38 269 -50 38 -19 118 -35 206 -41 72
-4 222 -31 285 -50 52 -16 126 -26 226 -29 39 -2 75 -6 80 -9 5 -3 41 -8 79
-12 39 -4 78 -11 87 -16 24 -13 131 -29 218 -33 85 -4 212 -21 315 -42 98 -20
350 -47 414 -45 56 2 352 -23 461 -39 36 -5 95 -11 132 -14 37 -2 75 -9 86
-15 10 -5 86 -13 168 -16 82 -3 165 -8 184 -10 19 -3 127 -7 240 -10 113 -2
241 -7 285 -10 149 -11 190 -14 220 -20 85 -15 246 -25 475 -29 231 -4 506
-12 665 -21 33 -2 87 -8 120 -13 33 -5 114 -8 180 -6 238 8 892 3 990 -6 55
-6 145 -8 200 -5 55 3 282 4 505 3 223 -1 421 -1 440 0 38 1 456 7 1149 17
245 3 447 8 450 10 4 2 87 6 186 9 418 13 925 37 990 46 39 6 153 15 255 22
282 17 512 35 570 43 19 2 80 7 135 11 55 3 103 8 107 10 4 3 78 9 165 14 87
5 169 11 183 14 31 5 97 14 175 21 33 4 94 13 135 20 41 8 115 16 163 19 48 3
91 7 95 10 4 2 48 7 97 11 50 4 107 11 127 16 21 5 54 10 75 10 21 1 83 7 139
15 55 7 143 16 195 20 52 4 105 11 118 16 14 5 45 11 70 14 25 2 75 9 111 14
36 5 110 14 165 20 55 6 147 20 205 30 58 11 161 26 230 34 69 8 157 20 195
25 39 6 111 15 160 21 110 14 116 15 135 22 8 4 49 11 90 17 41 6 86 13 100
16 14 3 36 7 50 10 14 2 64 13 111 24 48 11 176 34 285 51 110 17 240 37 289
45 50 8 113 17 140 21 28 3 84 14 125 25 41 10 89 20 105 23 75 12 195 38 255
55 36 11 79 22 95 25 17 3 61 12 99 21 39 8 94 17 124 21 29 3 63 7 75 10 12
2 51 9 86 15 36 5 68 12 72 15 4 2 29 7 55 10 27 3 55 9 64 13 8 4 42 13 75
20 33 7 69 17 80 22 11 4 38 10 60 13 48 7 101 20 135 34 49 19 485 120 555
128 22 3 58 13 80 23 23 11 56 22 75 25 19 3 53 11 75 17 22 5 46 11 53 11 6
1 12 5 12 10 0 4 10 8 23 8 12 0 73 18 136 40 63 22 124 40 136 40 12 0 25 3
29 7 6 7 33 14 216 62 47 12 100 29 119 38 18 8 77 28 130 43 53 15 116 35
141 44 25 9 68 23 95 31 28 7 64 19 80 25 17 7 44 16 60 20 80 21 226 70 278
94 31 14 57 24 57 22 0 -7 240 80 355 128 43 18 125 47 160 56 17 4 48 15 70
24 22 10 66 26 98 37 32 10 64 22 70 26 7 4 26 13 42 19 17 6 89 34 160 63
178 72 189 76 197 73 5 -1 8 2 8 6 0 5 6 9 13 9 6 0 44 14 84 31 39 18 76 32
83 32 6 0 66 25 133 56 67 30 133 60 147 66 14 5 39 16 55 23 17 8 41 17 55
21 14 3 66 26 115 49 50 23 137 63 195 90 58 26 126 59 153 72 26 13 47 21 47
17 0 -3 6 -2 13 4 6 5 46 24 87 42 357 155 943 429 1545 721 166 81 322 149
340 149 6 0 66 27 133 60 68 33 126 60 128 60 6 0 77 32 169 75 39 18 72 34
75 35 3 0 77 25 165 55 88 31 165 56 170 58 6 1 15 5 20 9 13 7 78 22 88 20 4
-1 7 2 7 8 0 5 9 10 20 10 11 0 20 5 20 10 0 6 3 9 8 9 24 -4 52 2 47 11 -3 5
0 8 7 5 7 -3 31 4 53 15 21 11 47 20 57 20 10 0 18 5 18 11 0 6 -8 8 -17 5
-10 -3 -92 -26 -183 -51 -301 -84 -831 -251 -1015 -321 -132 -49 -362 -143
-437 -178 -18 -8 -69 -29 -113 -46 -44 -18 -109 -47 -145 -65 -36 -18 -108
-51 -160 -73 -52 -22 -187 -83 -300 -135 -113 -52 -236 -106 -275 -122 -75
-29 -550 -228 -600 -250 -45 -20 -227 -91 -255 -100 -14 -4 -149 -55 -300
-113 -397 -152 -377 -145 -710 -257 -1079 -364 -1736 -553 -2620 -756 -74 -17
-180 -42 -234 -56 -55 -13 -210 -46 -345 -74 -135 -27 -293 -60 -351 -74 -159
-37 -331 -71 -590 -115 -129 -22 -291 -51 -360 -65 -220 -42 -351 -64 -545
-91 -104 -14 -332 -47 -505 -74 -173 -26 -362 -53 -420 -60 -58 -6 -287 -33
-510 -61 -336 -41 -789 -88 -1110 -114 -96 -8 -371 -33 -485 -44 -55 -5 -143
-12 -195 -15 -52 -3 -169 -10 -260 -16 -91 -5 -203 -12 -250 -14 -240 -14
-300 -18 -475 -32 -104 -9 -255 -17 -335 -19 -80 -1 -255 -7 -390 -13 -135 -6
-326 -14 -425 -17 -99 -3 -254 -10 -345 -15 -91 -6 -295 -12 -455 -15 -159 -3
-326 -7 -370 -10 -314 -20 -403 -24 -422 -19 -12 3 -170 1 -350 -6 -436 -15
-1705 -17 -2601 -2 -398 6 -726 14 -730 16 -4 2 -101 7 -217 10 -115 4 -228 9
-250 11 -22 2 -116 7 -210 10 -93 3 -235 10 -315 15 -80 5 -197 12 -260 15
-63 3 -169 10 -235 15 -66 5 -201 14 -300 20 -99 6 -210 15 -247 20 -37 6 -89
10 -115 10 -27 0 -194 16 -372 35 -177 19 -363 37 -412 41 -49 4 -89 11 -89
15 0 5 -29 9 -64 9 -35 0 -198 21 -362 46 -165 26 -311 47 -326 48 -16 0 -28
5 -28 10 0 4 -16 6 -35 4 -19 -2 -35 -1 -35 2 0 6 -177 29 -210 28 -8 0 -91
15 -185 35 -93 20 -289 59 -435 88 -226 44 -973 219 -1065 250 -16 5 -129 37
-250 70 -973 267 -1869 641 -2845 1187 -85 48 -156 86 -157 85 -2 -2 -17 6
-35 17 -18 11 -49 28 -68 37 -19 10 -37 21 -40 24 -3 3 -25 19 -50 34 -25 15
-47 31 -50 34 -3 4 -32 24 -64 46 -33 22 -102 84 -155 138 -53 53 -102 97
-109 97 -7 0 -10 5 -7 10 3 6 1 10 -6 10 -7 0 -10 3 -6 6 3 4 1 12 -6 19 -7 6
-32 36 -57 65 -66 79 -121 142 -141 165 -44 47 -319 399 -319 407 0 5 -4 7 -9
3 -5 -3 -24 19 -41 50 -17 30 -35 57 -40 60 -5 3 -37 46 -71 95 -34 50 -66 90
-71 90 -4 0 -8 7 -8 15 0 8 -5 15 -10 15 -6 0 -14 10 -19 23 -5 12 -28 47 -52
76 -46 57 -53 65 -110 152 -21 30 -44 61 -53 68 -9 7 -14 17 -11 21 2 4 -7 18
-20 30 -14 13 -25 30 -25 37 0 8 -7 16 -15 19 -8 4 -15 12 -15 19 0 7 -4 15
-8 17 -5 2 -28 30 -51 63 -23 33 -59 85 -81 115 -95 132 -162 228 -185 262
-78 117 -207 297 -229 320 -14 15 -26 30 -26 34 0 3 -22 37 -50 75 -27 38 -50
71 -50 75 0 5 -76 101 -90 114 -3 3 -17 21 -30 40 -13 19 -27 37 -30 40 -11 9
-80 108 -80 114 0 3 -7 14 -15 24 -32 35 -91 111 -116 149 -32 45 -327 424
-367 469 -15 17 -40 48 -57 69 -16 20 -37 46 -46 56 -9 11 -27 35 -40 54 -13
19 -30 35 -36 35 -7 0 -13 3 -13 8 0 4 -17 27 -38 51 -20 25 -67 81 -104 125
-37 45 -89 104 -115 131 -26 28 -77 83 -112 123 -153 173 -529 541 -680 664
-53 44 -114 95 -136 113 -22 19 -46 35 -52 35 -7 0 -13 4 -13 10 0 5 -22 24
-50 42 -27 18 -50 36 -50 40 0 5 -6 8 -14 8 -7 0 -20 7 -27 16 -15 18 -293
204 -306 204 -4 0 -26 14 -47 30 -22 17 -46 30 -53 30 -7 0 -13 4 -13 9 0 5
-12 14 -27 20 -16 6 -35 15 -43 21 -35 23 -270 134 -330 155 -36 13 -99 38
-140 55 -86 36 -379 135 -460 155 -30 8 -91 24 -135 36 -189 50 -466 96 -695
114 -36 3 -112 10 -169 15 -97 9 -591 11 -706 3z m-3451 -1764 c-3 -5 -10 -7
-15 -3 -5 3 -7 10 -3 15 3 5 10 7 15 3 5 -3 7 -10 3 -15z"/>
<path d="M5745 28370 c3 -5 8 -10 11 -10 2 0 4 5 4 10 0 6 -5 10 -11 10 -5 0
-7 -4 -4 -10z"/>
<path d="M52977 27549 c7 -7 15 -10 18 -7 3 3 -2 9 -12 12 -14 6 -15 5 -6 -5z"/>
<path d="M53390 27419 c0 -5 9 -9 20 -9 11 0 20 2 20 4 0 2 -9 6 -20 9 -11 3
-20 1 -20 -4z"/>
<path d="M53490 27386 c0 -2 7 -7 16 -10 8 -3 12 -2 9 4 -6 10 -25 14 -25 6z"/>
<path d="M53580 27356 c0 -2 7 -7 16 -10 8 -3 12 -2 9 4 -6 10 -25 14 -25 6z"/>
<path d="M53635 27330 c3 -5 8 -10 11 -10 2 0 4 5 4 10 0 6 -5 10 -11 10 -5 0
-7 -4 -4 -10z"/>
<path d="M53740 27295 c0 -3 14 -11 30 -20 17 -9 30 -11 30 -6 0 5 -13 14 -30
20 -16 5 -30 8 -30 6z"/>
<path d="M53815 27260 c3 -5 11 -10 16 -10 6 0 7 5 4 10 -3 6 -11 10 -16 10
-6 0 -7 -4 -4 -10z"/>
<path d="M53865 27240 c3 -5 8 -10 11 -10 2 0 4 5 4 10 0 6 -5 10 -11 10 -5 0
-7 -4 -4 -10z"/>
<path d="M53897 27229 c7 -7 15 -10 18 -7 3 3 -2 9 -12 12 -14 6 -15 5 -6 -5z"/>
<path d="M53940 27210 c8 -5 20 -10 25 -10 6 0 3 5 -5 10 -8 5 -19 10 -25 10
-5 0 -3 -5 5 -10z"/>
<path d="M53989 27187 c7 -9 20 -17 28 -17 8 0 28 -8 46 -17 18 -9 35 -16 40
-15 4 1 7 -2 7 -8 0 -5 3 -9 8 -8 4 1 20 -4 36 -11 16 -6 31 -10 33 -8 3 4
-164 82 -177 82 -3 0 -12 4 -20 10 -13 8 -13 7 -1 -8z"/>
<path d="M54200 27089 c0 -5 5 -7 10 -4 6 3 10 1 10 -5 0 -6 5 -8 10 -5 6 3
10 1 10 -4 0 -6 5 -11 10 -11 19 0 10 17 -15 28 -32 15 -35 15 -35 1z"/>
<path d="M32868 26293 c7 -3 16 -2 19 1 4 3 -2 6 -13 5 -11 0 -14 -3 -6 -6z"/>
<path d="M50613 26104 c4 -7 -6 -16 -26 -24 -17 -7 -51 -20 -74 -29 l-43 -17
25 -22 c14 -12 33 -22 42 -22 16 0 16 -1 0 -17 -13 -13 -32 -17 -75 -16 -31 1
-50 -1 -42 -4 8 -3 37 -19 63 -36 l48 -31 -43 -12 c-82 -23 -87 -26 -85 -45 1
-16 9 -19 49 -19 36 0 48 -4 48 -15 0 -10 -16 -16 -52 -21 -44 -6 -48 -8 -29
-16 14 -5 39 -4 63 3 22 5 43 8 46 5 3 -3 -2 -6 -11 -6 -9 0 -17 -7 -17 -16 0
-11 -5 -14 -16 -10 -20 8 -36 -2 -28 -16 4 -7 9 -6 14 2 5 8 11 7 23 -4 8 -9
31 -16 50 -16 19 0 49 -3 68 -7 29 -5 30 -7 14 -15 -15 -6 -13 -7 7 -3 15 3
45 -2 65 -10 20 -9 49 -13 63 -10 15 3 40 1 56 -5 16 -7 67 -14 114 -16 47 -3
114 -11 150 -19 36 -8 79 -16 95 -17 43 -4 37 -22 -10 -29 -22 -4 -4 -5 40 -3
48 2 68 0 50 -4 -29 -8 -29 -8 -6 -14 13 -4 35 -2 48 3 14 5 28 7 31 4 3 -3 0
-5 -6 -5 -7 0 -12 -4 -12 -10 0 -5 21 -7 49 -3 53 6 105 -2 97 -16 -3 -4 5 -6
17 -4 12 2 68 -7 123 -21 56 -13 154 -34 219 -46 65 -12 140 -30 167 -41 69
-27 192 -59 228 -59 16 0 47 -6 67 -14 54 -20 212 -56 253 -57 19 -1 27 -3 18
-6 -53 -14 10 -36 102 -36 37 0 48 -2 35 -8 -16 -6 -17 -8 -3 -8 9 -1 23 -7
30 -13 7 -7 27 -15 43 -17 28 -3 48 -18 40 -31 -2 -3 18 -5 43 -4 26 0 61 -7
77 -16 17 -9 50 -20 74 -24 24 -4 62 -15 85 -25 22 -10 59 -17 81 -16 22 1 49
-1 60 -6 18 -7 18 -8 2 -8 -39 -2 -3 -20 93 -46 94 -27 112 -36 91 -49 -10 -6
-7 -36 8 -85 6 -19 9 -37 6 -40 -2 -4 0 -13 5 -21 13 -21 -28 -49 -42 -29 -7
11 -11 11 -15 2 -2 -8 -22 -13 -44 -13 -28 0 -39 -4 -39 -15 0 -17 -36 -21
-42 -4 -3 8 -25 9 -73 3 -52 -5 -64 -9 -45 -14 l25 -7 -29 -8 c-20 -6 -31 -4
-34 3 -5 15 -54 16 -69 1 -6 -6 -63 -12 -134 -14 -134 -4 -175 -7 -344 -25
-195 -20 -247 -28 -258 -39 -13 -13 -41 -15 -33 -3 3 5 -18 4 -47 0 -47 -8
-154 -21 -262 -32 -22 -3 -98 -7 -169 -11 -71 -3 -133 -8 -138 -11 -8 -5 -220
-26 -265 -26 -13 0 -23 -5 -23 -10 0 -6 -6 -8 -13 -5 -7 2 -37 1 -67 -4 -30
-5 -95 -12 -145 -15 -49 -3 -100 -10 -113 -15 -13 -5 -36 -9 -51 -9 -15 0 -30
-3 -33 -6 -4 -3 -35 -7 -69 -9 -35 -3 -86 -9 -114 -14 -27 -5 -96 -15 -152
-21 -57 -7 -101 -15 -99 -19 2 -3 -6 -6 -17 -7 -71 -3 -162 -16 -165 -25 -2
-5 -13 -9 -25 -9 -12 0 -54 -7 -92 -15 -39 -8 -92 -18 -120 -21 -27 -3 -70
-10 -95 -16 -25 -5 -70 -13 -100 -19 -30 -5 -73 -13 -95 -18 -22 -6 -98 -24
-170 -41 -127 -30 -146 -35 -251 -63 -28 -8 -63 -13 -78 -11 -14 1 -24 -2 -21
-7 4 -5 -5 -9 -19 -9 -14 0 -26 -5 -26 -11 0 -5 -5 -7 -11 -3 -13 7 -118 -14
-134 -28 -5 -4 -19 -8 -32 -8 -13 0 -23 -5 -23 -11 0 -5 -4 -8 -10 -4 -5 3
-26 -1 -46 -10 -20 -8 -47 -15 -60 -15 -12 0 -26 -5 -29 -10 -4 -6 -10 -8 -15
-5 -5 3 -11 1 -15 -5 -3 -5 -19 -10 -36 -10 -16 0 -29 -5 -29 -11 0 -6 -6 -9
-14 -6 -8 3 -17 3 -21 -1 -4 -4 -10 -7 -13 -8 -4 0 -14 -4 -22 -7 -8 -4 -28
-8 -45 -11 -16 -2 -30 -5 -30 -6 0 -2 -33 -8 -62 -12 -7 -1 -13 -5 -13 -10 0
-4 -8 -8 -19 -8 -10 0 -31 -7 -47 -14 -15 -8 -31 -13 -36 -10 -4 3 -8 1 -8 -4
0 -6 -17 -13 -37 -18 -21 -4 -40 -8 -43 -9 -3 0 -14 -6 -25 -12 -11 -5 -45
-18 -75 -28 -30 -10 -64 -24 -75 -31 -11 -7 -31 -15 -45 -17 -14 -3 -38 -11
-55 -17 -16 -7 -43 -18 -60 -25 -16 -7 -46 -16 -65 -20 -19 -4 -43 -14 -52
-22 -9 -8 -22 -12 -27 -8 -6 3 -11 2 -11 -3 0 -8 -22 -18 -65 -27 -5 -2 -40
-17 -78 -34 -37 -17 -72 -31 -77 -31 -6 0 -10 -4 -10 -10 0 -5 -5 -10 -10 -10
-9 0 -111 -45 -162 -71 -10 -5 -25 -9 -33 -9 -8 0 -15 -4 -15 -10 0 -5 -7 -10
-16 -10 -9 0 -48 -16 -85 -35 -38 -19 -76 -35 -84 -35 -8 0 -15 -4 -15 -8 0
-5 -20 -17 -45 -28 -25 -10 -45 -22 -45 -26 0 -4 -4 -8 -9 -8 -12 0 -69 -26
-111 -51 -19 -12 -56 -33 -83 -46 -26 -14 -49 -29 -52 -33 -3 -5 -19 -11 -35
-15 -17 -4 -30 -10 -30 -15 0 -5 -13 -11 -29 -15 -16 -3 -37 -15 -47 -26 -9
-10 -25 -19 -35 -19 -10 0 -23 -9 -29 -20 -6 -11 -16 -20 -22 -20 -6 0 -44
-20 -85 -45 -40 -25 -76 -45 -80 -45 -3 0 -30 -16 -59 -35 -29 -19 -55 -35
-59 -35 -3 0 -32 -17 -63 -39 -31 -21 -73 -46 -92 -56 -19 -9 -45 -27 -57 -38
-13 -11 -23 -17 -23 -14 0 4 -8 -1 -19 -10 -15 -15 -193 -130 -258 -168 -37
-22 -139 -91 -153 -104 -8 -8 -28 -20 -45 -27 -16 -7 -37 -21 -47 -31 -9 -10
-31 -28 -50 -41 -18 -13 -73 -52 -123 -87 -49 -35 -103 -73 -120 -85 -88 -61
-232 -166 -243 -177 -7 -7 -33 -27 -57 -44 -25 -18 -45 -36 -45 -41 0 -4 -6
-8 -12 -8 -7 0 -30 -16 -52 -35 -21 -19 -41 -35 -45 -35 -3 0 -26 -18 -51 -40
-24 -22 -52 -43 -62 -46 -10 -3 -18 -10 -18 -15 0 -5 -4 -9 -9 -9 -6 0 -23
-12 -38 -26 -15 -15 -44 -37 -64 -49 -19 -13 -49 -36 -65 -52 -17 -15 -58 -50
-92 -76 -34 -27 -62 -53 -62 -58 0 -5 -7 -9 -15 -9 -8 0 -22 -11 -31 -25 -9
-14 -22 -25 -30 -25 -7 0 -17 -6 -21 -13 -10 -15 -88 -80 -163 -136 -30 -22
-58 -44 -62 -48 -4 -4 -21 -25 -39 -45 -17 -21 -35 -36 -39 -33 -5 3 -18 -8
-30 -25 -12 -16 -24 -29 -29 -27 -4 1 -32 -23 -63 -54 -30 -31 -68 -65 -84
-75 -16 -10 -33 -24 -37 -31 -4 -7 -12 -13 -17 -13 -10 0 -54 -35 -74 -58 -30
-35 -53 -55 -73 -63 -13 -5 -23 -14 -23 -22 0 -11 -33 -47 -43 -47 -2 0 -26
-21 -53 -47 -94 -91 -246 -228 -262 -237 -10 -6 -26 -21 -37 -35 -11 -14 -28
-32 -39 -41 -10 -8 -48 -41 -83 -72 -36 -32 -68 -58 -73 -58 -4 0 -18 -16 -31
-35 -13 -19 -28 -35 -33 -35 -5 0 -42 -30 -81 -67 -119 -112 -225 -210 -225
-207 0 1 -15 -11 -32 -28 -18 -16 -51 -47 -73 -67 -99 -92 -284 -259 -320
-290 -60 -50 -154 -132 -190 -166 -18 -16 -51 -46 -74 -65 -23 -19 -61 -52
-84 -72 -23 -21 -45 -38 -49 -38 -4 0 -14 -13 -23 -29 -8 -16 -24 -32 -34 -36
-11 -3 -45 -31 -75 -62 -31 -32 -56 -53 -56 -49 0 5 -24 -14 -52 -42 -29 -28
-82 -75 -118 -104 -36 -29 -74 -62 -85 -73 -11 -11 -45 -40 -75 -65 -30 -24
-73 -61 -95 -82 -45 -41 -66 -59 -120 -103 -118 -96 -182 -150 -201 -169 -28
-28 -71 -65 -116 -98 -20 -15 -53 -43 -73 -63 -21 -19 -43 -35 -50 -35 -7 0
-21 -11 -31 -25 -10 -14 -23 -25 -29 -25 -5 0 -26 -15 -45 -33 -19 -18 -55
-48 -80 -66 -25 -18 -67 -53 -94 -79 -28 -26 -53 -47 -58 -47 -4 0 -30 -19
-57 -42 -28 -24 -52 -43 -55 -43 -3 0 -61 -43 -128 -96 -68 -53 -133 -101
-145 -107 -13 -5 -23 -14 -23 -19 0 -4 -7 -8 -15 -8 -8 0 -15 -6 -15 -14 0 -8
-9 -18 -20 -21 -11 -3 -20 -11 -20 -16 0 -5 -6 -9 -13 -9 -6 0 -25 -13 -40
-30 -16 -17 -35 -30 -42 -30 -8 0 -19 -8 -24 -17 -6 -10 -11 -15 -11 -11 0 4
-16 -7 -35 -25 -19 -18 -39 -32 -44 -32 -5 0 -21 -10 -37 -22 -16 -12 -33 -22
-38 -22 -5 1 -12 -3 -15 -8 -10 -14 -78 -62 -92 -65 -8 -2 -25 -15 -39 -29
-30 -32 -135 -109 -148 -109 -5 0 -15 -7 -22 -15 -7 -8 -16 -13 -20 -10 -4 3
-10 -2 -14 -10 -3 -8 -12 -15 -20 -15 -7 0 -17 -7 -20 -16 -3 -8 -10 -13 -15
-10 -5 3 -11 0 -14 -7 -2 -7 -22 -21 -43 -32 -21 -11 -59 -35 -85 -52 -25 -18
-53 -33 -62 -33 -8 0 -18 -7 -21 -16 -3 -8 -10 -13 -15 -9 -5 3 -13 1 -16 -5
-8 -12 -111 -90 -120 -90 -4 0 -21 -11 -38 -24 -18 -13 -42 -27 -54 -31 -13
-3 -23 -11 -23 -16 0 -5 -7 -9 -15 -9 -8 0 -22 -8 -32 -19 -10 -10 -43 -29
-73 -42 -30 -13 -57 -25 -60 -28 -3 -4 -38 -21 -77 -40 -40 -19 -73 -38 -73
-42 0 -9 -41 -24 -53 -21 -5 1 -6 -2 -3 -7 3 -5 -6 -12 -22 -16 -34 -8 -106
-43 -150 -72 -18 -12 -71 -36 -117 -54 -47 -17 -90 -38 -96 -45 -6 -8 -25 -14
-41 -14 -16 0 -27 -4 -24 -9 3 -4 -14 -14 -37 -21 -23 -8 -46 -17 -52 -20 -5
-4 -32 -15 -60 -25 -27 -10 -54 -21 -60 -25 -12 -9 -102 -39 -135 -45 -12 -2
-30 -11 -39 -19 -20 -17 -66 -32 -58 -19 4 6 -5 8 -21 5 -22 -4 -23 -6 -8 -12
14 -5 9 -9 -22 -18 -22 -7 -48 -9 -58 -6 -14 4 -15 3 -6 -4 11 -7 9 -10 -7
-15 -12 -3 -19 -1 -15 4 7 12 -2 11 -48 -2 -21 -5 -38 -14 -38 -19 0 -15 -85
-50 -128 -53 -23 -1 -42 -5 -42 -10 0 -13 -52 -28 -64 -19 -6 5 -22 5 -36 1
-24 -8 -24 -9 3 -5 51 6 14 -11 -81 -38 -102 -28 -134 -33 -87 -11 41 18 28
18 -28 -1 -26 -9 -47 -20 -47 -25 0 -5 -8 -9 -17 -9 -15 0 -16 2 -3 10 8 5 11
10 5 10 -14 0 -42 -19 -30 -21 14 -2 -63 -19 -105 -24 -80 -8 -130 -18 -130
-25 0 -7 -3 -8 -76 -14 -28 -2 -60 -9 -70 -15 -39 -23 -279 -61 -339 -55 -22
3 -26 1 -15 -6 12 -8 12 -10 -5 -11 -11 0 -29 -2 -40 -3 -11 -1 -33 -3 -48 -4
-16 -1 -25 -6 -22 -12 4 -6 -2 -7 -16 -1 -24 8 -99 -3 -135 -21 -12 -5 -35
-11 -50 -13 -16 -1 -38 -6 -48 -10 -13 -6 -21 -5 -24 3 -2 7 -22 12 -45 12
-32 0 -39 -3 -27 -11 12 -8 11 -9 -6 -5 -11 4 -42 2 -69 -3 -33 -6 -52 -6 -56
1 -4 6 -19 7 -37 3 -60 -13 -263 -27 -697 -49 -66 -4 -133 -9 -150 -13 -16 -3
-43 -6 -60 -5 -16 2 -53 -2 -82 -6 -29 -5 -54 -6 -55 -3 -2 3 -68 2 -148 -2
-224 -13 -230 -13 -239 2 -7 10 -10 10 -13 1 -3 -9 -107 -13 -443 -14 -242 -1
-417 1 -390 4 48 7 48 7 10 8 -22 0 -64 -3 -93 -7 -40 -6 -58 -4 -74 7 -15 11
-19 11 -13 2 5 -8 3 -11 -6 -8 -7 2 -59 -17 -114 -43 -124 -58 -193 -78 -301
-87 -174 -16 -325 15 -513 104 l-114 54 -541 7 c-298 4 -602 7 -676 7 -74 0
-138 4 -141 9 -4 6 -22 4 -44 -3 -23 -8 -58 -10 -90 -6 -28 3 -55 2 -59 -2
-12 -11 -30 -9 -41 6 -8 10 -11 5 -13 -20 -5 -78 -35 -304 -42 -318 -7 -12
-34 -15 -140 -15 -127 0 -131 0 -126 20 3 11 10 76 16 145 5 69 12 140 15 158
2 17 -1 32 -6 32 -6 0 -7 -4 -4 -10 9 -14 -9 -12 -23 2 -10 10 -15 10 -21 -1
-5 -7 -10 -9 -12 -4 -3 6 -36 5 -89 -3 -51 -8 -183 -13 -332 -13 -136 -1 -249
-5 -252 -9 -3 -4 -44 -7 -93 -6 -48 2 -153 -1 -233 -6 -80 -5 -256 -11 -393
-13 -136 -2 -249 -6 -252 -8 -4 -4 17 -188 34 -289 6 -35 5 -57 -1 -61 -5 -3
-57 -9 -116 -13 -80 -4 -108 -3 -114 6 -6 10 -8 10 -8 0 0 -11 -3 -11 -14 1
-12 12 -34 120 -62 309 -5 33 -24 65 -24 41 0 -5 -246 -10 -547 -12 -477 -2
-554 -1 -593 13 -25 9 -61 15 -80 14 -33 -1 -32 -1 10 -8 40 -6 36 -7 -35 -9
-44 -1 -98 -4 -120 -5 -22 -2 -118 2 -213 8 -169 11 -174 11 -240 -12 -250
-86 -487 -67 -732 59 -76 38 -90 42 -108 27 -9 -8 -16 -8 -20 -1 -4 5 -18 9
-32 8 -14 -2 -45 1 -70 5 -25 5 -88 11 -140 15 -52 3 -117 10 -145 15 -27 5
-90 9 -140 9 -49 0 -133 6 -185 15 -52 8 -124 20 -160 26 -82 13 -327 40 -360
40 -14 0 -59 7 -100 15 -41 9 -109 20 -150 26 -41 6 -80 15 -86 20 -6 5 -41
11 -78 14 -37 3 -73 8 -79 12 -7 4 -24 6 -39 4 -17 -1 -36 6 -50 19 -19 17
-31 20 -63 16 -30 -5 -36 -4 -25 5 12 8 10 9 -7 4 -13 -3 -38 1 -58 11 -19 9
-46 14 -60 12 -14 -3 -22 -1 -18 5 3 6 -6 8 -25 5 -17 -2 -29 -1 -26 3 4 8
-82 29 -117 29 -11 0 -27 7 -35 15 -14 13 -55 20 -119 18 -11 0 -23 5 -27 11
-5 8 -8 7 -8 -2 0 -10 -4 -9 -16 3 -9 9 -23 14 -30 11 -8 -3 -14 -1 -14 5 0 6
-7 9 -15 6 -8 -4 -17 -2 -20 3 -3 5 -31 12 -63 16 -31 3 -86 17 -122 29 -117
40 -220 67 -236 61 -8 -3 -12 -2 -9 4 3 6 0 11 -7 11 -7 1 -30 3 -52 5 -21 2
-44 8 -51 14 -18 15 -154 60 -181 60 -13 0 -26 5 -30 11 -3 6 -17 9 -31 6 -13
-2 -21 -2 -18 1 3 3 -45 25 -107 49 -78 30 -122 42 -143 38 -24 -4 -26 -3 -10
4 l20 10 -20 1 c-11 1 -33 3 -50 4 -30 2 -127 44 -133 59 -2 4 -7 7 -12 7 -5
0 -37 13 -72 28 -84 38 -126 54 -134 52 -4 -1 -10 3 -13 8 -7 11 -89 49 -176
82 -90 35 -168 73 -199 99 -9 7 -25 11 -36 8 -11 -3 -20 0 -20 6 0 7 -5 5 -10
-3 -8 -12 -10 -11 -10 7 0 22 -31 40 -50 28 -5 -3 -10 -2 -10 4 0 6 -7 8 -15
5 -8 -4 -15 -1 -15 5 0 6 -6 8 -14 5 -8 -3 -23 3 -33 13 -31 31 -80 63 -87 56
-3 -3 -6 -2 -6 3 0 5 -25 21 -55 34 -30 13 -55 27 -55 31 0 3 -21 14 -47 24
-44 16 -141 70 -153 86 -3 3 -26 18 -53 33 -29 17 -44 32 -40 39 4 7 -1 6 -10
-2 -15 -12 -17 -11 -17 2 0 10 -6 14 -15 11 -8 -4 -15 -2 -15 3 0 5 -25 20
-55 32 -30 13 -52 27 -49 32 3 5 -2 9 -10 9 -13 0 -70 32 -101 58 -5 4 -31 18
-58 31 -26 12 -44 27 -41 33 3 5 -2 8 -12 6 -11 -2 -18 2 -17 8 1 7 -6 10 -17
7 -10 -3 -27 0 -37 6 -10 6 -13 11 -6 11 14 0 6 30 -9 30 -5 0 -6 -4 -3 -10 3
-6 -1 -7 -9 -4 -9 3 -16 10 -16 15 0 5 -7 9 -16 9 -14 0 -71 27 -84 40 -3 3
-21 14 -40 24 -19 11 -37 22 -40 25 -3 3 -21 18 -42 33 -20 15 -42 34 -50 41
-7 7 -39 32 -70 55 -31 23 -59 46 -63 52 -3 5 -17 10 -31 10 -17 0 -24 6 -24
19 0 17 -25 36 -43 33 -4 -1 -6 3 -5 10 2 6 -7 14 -19 17 -13 3 -33 15 -45 26
-13 11 -58 46 -100 77 -43 32 -78 62 -78 68 0 5 -7 10 -15 10 -8 0 -20 9 -27
20 -7 11 -19 20 -26 20 -14 0 -31 12 -67 47 -12 13 -25 23 -29 23 -3 0 -45 39
-92 86 -66 65 -89 83 -96 73 -5 -9 -6 -4 -2 14 5 21 3 27 -10 27 -9 0 -16 4
-16 8 0 11 -100 92 -112 92 -6 0 0 -9 13 -20 13 -10 19 -19 13 -20 -20 0 -63
51 -57 67 5 12 2 15 -10 10 -8 -3 -21 1 -27 8 -7 8 -16 12 -21 9 -5 -3 -9 -1
-9 4 0 14 -141 152 -150 147 -5 -3 -11 4 -15 15 -3 11 -10 20 -14 20 -4 0 -42
34 -84 75 -43 41 -82 75 -87 75 -6 0 -9 6 -8 13 2 6 -3 11 -10 9 -8 -1 -11 2
-8 7 4 5 -6 22 -20 38 -15 15 -21 20 -14 11 17 -24 -3 -23 -25 2 -9 10 -15 26
-12 34 4 10 1 13 -9 9 -9 -3 -34 15 -68 50 -30 31 -57 53 -60 50 -3 -4 -6 -1
-6 6 0 8 -6 11 -17 7 -10 -4 -14 -4 -10 0 9 9 -32 54 -50 54 -7 0 -13 3 -13 8
0 7 -35 53 -65 83 -8 9 -15 22 -15 30 0 8 -10 14 -24 14 l-25 0 21 -35 c12
-19 94 -145 184 -280 757 -1145 1502 -1985 2384 -2689 1267 -1012 2668 -1718
4260 -2146 74 -20 136 -38 138 -39 6 -7 -19 -252 -38 -363 -59 -343 -173 -676
-375 -1090 -289 -593 -602 -1069 -1354 -2056 -503 -661 -670 -897 -767 -1085
-25 -48 -51 -91 -56 -97 -8 -7 -8 -5 -3 5 7 12 6 13 -7 3 -8 -7 -17 -11 -19
-8 -8 8 -316 -82 -394 -115 -138 -58 -240 -117 -282 -161 -13 -13 -34 -36 -48
-51 -28 -30 -33 -79 -13 -124 41 -90 226 -196 483 -278 133 -43 137 -44 220
-65 934 -240 2579 -415 4510 -481 171 -5 355 -12 410 -14 68 -3 104 -1 114 7
12 9 13 9 7 0 -6 -10 21 -13 121 -14 70 0 187 -2 258 -4 72 -2 330 -6 575 -9
245 -3 627 -9 850 -12 644 -10 1256 9 2245 71 44 3 134 7 200 10 66 3 145 7
175 10 30 2 107 7 170 10 63 3 140 8 170 10 30 3 95 7 144 10 48 4 102 8 120
10 17 2 78 6 136 10 107 6 417 32 480 40 40 5 172 17 212 19 15 1 30 5 33 8 4
4 13 4 20 1 13 -4 238 17 390 37 39 5 90 11 115 14 249 28 550 71 820 118 96
16 189 32 205 34 155 25 662 147 678 163 5 5 16 7 23 4 8 -3 14 0 14 7 0 6 6
10 13 7 6 -2 24 2 39 10 15 7 29 13 30 12 7 -5 85 25 101 39 9 8 17 12 17 8 0
-3 15 1 33 11 17 9 35 16 39 15 3 -1 12 5 18 13 7 8 20 15 29 15 16 1 51 23
51 33 0 6 -57 -1 -80 -10 -8 -3 -24 -7 -35 -9 -11 -2 -36 -8 -55 -14 -19 -5
-69 -16 -110 -24 -41 -9 -95 -22 -120 -31 -25 -9 -61 -16 -80 -16 -19 0 -55
-6 -80 -14 -25 -7 -67 -16 -93 -20 -52 -7 -53 -7 -167 -29 -41 -9 -86 -15
-100 -15 -26 1 -62 -5 -140 -21 -25 -6 -63 -10 -85 -11 -22 0 -85 -9 -140 -19
-118 -22 -324 -52 -380 -56 -22 -1 -41 -4 -42 -5 -9 -6 -94 -19 -168 -25 -38
-3 -101 -10 -140 -15 -73 -11 -87 -12 -224 -23 -100 -8 -105 -9 -111 -17 -3
-4 -51 -9 -106 -12 -56 -3 -141 -13 -190 -21 -49 -8 -118 -17 -154 -20 -36 -2
-76 -6 -90 -9 -32 -7 -107 -15 -195 -23 -38 -3 -185 -16 -325 -30 -361 -34
-618 -55 -740 -59 -58 -3 -152 -9 -210 -14 -58 -6 -163 -13 -235 -16 -71 -3
-161 -8 -200 -10 -191 -13 -522 -23 -1145 -36 -567 -12 -777 -12 -1009 2 -96
6 -269 12 -385 14 -116 2 -227 6 -246 9 -19 2 -147 10 -285 16 -137 6 -261 13
-274 15 -13 2 -92 7 -175 10 -83 4 -184 11 -224 16 -40 5 -110 9 -155 9 -45 0
-154 7 -242 15 -88 8 -182 17 -210 19 -304 27 -431 41 -435 46 -3 4 -25 7 -49
9 -25 1 -47 4 -50 5 -3 2 -55 7 -116 10 -153 9 -205 14 -410 41 -99 13 -205
26 -235 30 -30 3 -73 10 -95 15 -22 5 -59 10 -82 10 -23 0 -52 4 -65 10 -24
10 -239 39 -338 45 -65 5 -197 29 -295 55 -38 10 -106 24 -150 30 -105 14
-240 41 -400 79 -71 17 -154 33 -184 36 -29 3 -66 11 -82 19 -34 17 -214 68
-321 91 -43 9 -80 20 -83 26 -4 5 -16 9 -29 9 -12 0 -26 4 -32 9 -5 5 -34 19
-64 32 -30 13 -57 26 -60 29 -3 4 -40 23 -82 43 -42 20 -93 52 -113 71 -20 20
-42 36 -48 36 -5 0 -8 3 -5 6 3 3 -3 28 -13 57 -16 44 -27 117 -12 79 4 -10 8
-8 18 5 12 16 27 18 112 16 97 -2 210 -10 268 -18 17 -2 55 -6 85 -9 30 -3 65
-8 77 -11 12 -3 68 -7 125 -10 57 -3 157 -15 223 -26 90 -15 175 -21 342 -24
122 -2 227 -6 233 -10 6 -4 10 4 10 18 0 13 10 37 23 53 12 16 20 31 18 34 -2
3 11 12 28 20 17 9 29 19 25 22 -10 10 38 55 67 62 24 5 98 66 81 66 -4 0 9 8
28 17 19 10 41 23 48 30 7 7 39 29 70 49 31 20 69 45 84 55 15 11 30 19 33 19
3 0 17 11 30 24 13 14 34 27 45 31 11 3 20 10 20 14 0 15 64 77 108 106 23 15
42 35 42 43 0 8 2 13 5 10 5 -5 75 59 75 69 0 2 23 27 50 54 28 27 50 58 50
69 0 11 4 20 9 20 5 0 13 10 17 22 3 12 13 28 20 36 8 7 12 18 9 23 -4 5 -1 9
5 9 14 0 34 21 38 40 2 8 7 17 11 20 4 3 19 28 33 55 33 67 50 96 66 113 7 8
11 21 8 28 -3 8 -1 14 4 14 5 0 17 16 26 35 9 19 20 35 25 35 5 0 6 6 3 14 -3
8 3 20 13 27 19 14 53 77 53 98 0 6 5 11 11 11 5 0 8 4 5 9 -3 5 1 14 9 21 8
7 15 18 15 24 0 6 15 36 32 66 18 30 33 61 34 68 1 8 10 22 20 33 9 10 15 22
11 25 -3 3 3 15 14 27 43 50 49 58 55 84 6 25 28 58 67 103 7 8 24 31 37 50
26 38 69 79 85 80 6 0 33 18 61 39 29 21 62 42 75 46 13 4 43 18 67 32 23 13
46 21 51 18 5 -3 12 -1 15 4 3 4 19 7 35 5 19 -2 31 2 35 11 3 8 15 15 26 15
11 0 20 5 20 10 0 6 6 10 13 10 7 0 33 10 57 21 55 27 133 32 125 9 -4 -11 -2
-10 9 3 7 9 23 17 35 17 11 0 21 4 21 9 0 11 39 21 100 27 25 3 54 7 65 11 11
4 34 8 50 9 17 1 32 3 35 4 3 1 10 3 15 4 35 7 65 20 65 28 0 6 7 8 14 5 8 -3
28 0 43 8 30 15 75 27 111 29 12 0 22 4 22 9 0 4 8 7 18 7 9 0 34 9 55 20 20
11 39 20 42 20 6 0 8 1 56 14 14 4 32 9 40 10 8 2 22 6 32 9 9 4 25 10 35 14
9 3 25 8 35 10 10 1 31 10 48 18 16 9 29 13 29 9 0 -4 6 -2 13 3 6 6 35 16 64
23 29 8 49 18 46 23 -3 6 -1 7 5 3 12 -7 92 24 92 36 0 5 7 8 15 8 8 0 23 4
33 9 9 5 34 17 54 25 20 9 40 21 43 26 3 6 15 10 26 10 10 0 27 4 37 10 14 8
127 60 142 65 24 8 49 21 70 35 14 10 40 21 58 25 17 3 32 11 32 16 0 6 5 7
10 4 6 -3 10 -1 10 4 0 6 7 11 15 11 9 0 33 11 54 24 21 14 42 22 45 19 3 -3
14 1 24 10 10 10 22 14 25 10 4 -3 7 -1 7 5 0 10 38 30 128 67 23 10 42 22 42
26 0 4 9 6 20 4 11 -2 18 0 15 6 -4 5 2 9 13 9 10 0 27 8 38 18 10 9 30 18 44
20 28 4 61 17 168 70 39 19 72 38 72 42 0 4 6 7 13 7 11 0 71 23 437 165 173
66 231 85 310 97 41 7 86 16 100 22 14 5 39 11 55 13 17 2 43 8 58 15 16 6 38
11 50 11 12 0 40 8 62 18 28 12 67 17 127 17 47 0 84 2 83 5 -2 3 25 7 59 8
35 2 78 7 97 12 23 7 35 6 40 -1 4 -7 8 -8 10 -1 2 5 24 13 48 17 35 6 42 5
35 -6 -6 -11 -5 -12 7 -3 8 7 28 10 44 8 107 -16 444 -29 581 -24 26 1 50 -3
53 -8 3 -6 13 -10 21 -9 25 2 120 -15 120 -22 0 -3 46 -6 103 -7 56 -1 134 -7
174 -13 40 -7 77 -10 83 -6 5 3 10 3 10 -2 0 -4 32 -9 72 -11 40 -2 80 -8 89
-13 10 -5 35 -11 56 -13 21 -2 51 -9 66 -15 15 -6 49 -10 75 -9 26 1 61 -1 77
-5 46 -12 139 -25 146 -21 11 6 69 -17 64 -26 -2 -4 17 -10 43 -13 26 -3 61
-11 77 -18 17 -7 36 -11 43 -10 6 1 12 -4 12 -11 0 -15 61 -39 108 -43 19 -1
37 -7 41 -13 4 -6 51 -23 105 -37 54 -14 116 -34 139 -45 23 -12 61 -20 89
-20 26 0 48 -4 48 -10 0 -5 10 -8 23 -7 26 2 127 -24 127 -33 0 -4 13 -5 28
-2 17 2 45 -5 67 -17 35 -18 41 -19 55 -6 9 8 24 15 34 15 9 0 15 4 11 9 -3 6
3 9 13 8 24 -1 112 32 113 44 1 8 3 16 8 37 2 4 6 -2 11 -13 8 -18 9 -17 9 8
1 15 -3 27 -9 27 -5 0 -10 5 -10 10 0 6 6 10 14 10 9 0 15 16 19 46 2 26 10
50 16 54 15 9 23 180 9 180 -6 0 -8 9 -5 20 3 11 2 20 -1 20 -4 0 -8 12 -9 28
-3 40 -9 81 -23 145 -6 31 -9 60 -6 65 7 11 18 145 18 222 0 36 5 68 10 71 5
3 14 24 19 46 6 29 26 58 69 103 42 43 59 68 55 79 -10 26 -53 290 -60 372 -8
87 -16 79 90 99 366 70 1109 266 1590 419 1202 382 2374 936 3379 1598 987
650 1907 1415 3076 2558 129 126 591 583 1025 1015 1093 1087 1539 1504 2157
2018 457 380 857 679 1308 977 804 533 1480 868 2310 1146 1735 580 3762 765
6360 578 490 -35 1255 -109 1745 -168 179 -22 171 -24 202 47 85 198 -21 444
-320 745 -120 120 -306 283 -507 443 -247 197 -242 194 -348 221 -54 13 -104
27 -112 30 -8 3 -21 5 -27 4 -7 -1 -13 2 -13 7 0 6 -15 13 -32 16 -53 10 -67
13 -183 46 -60 16 -123 32 -140 34 -16 2 -70 14 -120 25 -191 46 -411 92 -601
126 -110 19 -248 44 -309 55 -166 30 -664 96 -895 120 -295 29 -750 59 -1085
70 -348 11 -1112 12 -1140 1 -12 -5 -26 -4 -34 3 -11 8 -13 8 -8 0z m-48 -184
c-3 -5 -14 -10 -23 -9 -14 0 -13 2 3 9 27 11 27 11 20 0z m-65 -70 c0 -5 -4
-10 -10 -10 -5 0 -10 5 -10 10 0 6 5 10 10 10 6 0 10 -4 10 -10z m2087 -596
c-3 -3 -12 -4 -19 -1 -8 3 -5 6 6 6 11 1 17 -2 13 -5z m176 -41 c-7 -2 -19 -2
-25 0 -7 3 -2 5 12 5 14 0 19 -2 13 -5z m-27878 -12579 c17 -8 46 -17 65 -20
19 -2 37 -8 40 -13 7 -11 136 -35 154 -28 8 3 17 3 21 -1 3 -3 16 -7 28 -8 24
-1 153 -24 177 -31 8 -2 15 -3 15 -2 0 5 82 -42 104 -60 25 -19 36 -61 17 -61
-8 0 -8 -3 0 -8 5 -4 11 -16 11 -27 3 -38 23 -120 31 -123 14 -4 4 -69 -16
-109 -17 -33 -26 -76 -47 -219 -3 -17 -12 -44 -20 -60 -8 -16 -15 -37 -15 -47
0 -11 -4 -15 -11 -11 -9 5 -10 -1 -5 -20 4 -18 3 -25 -4 -21 -6 4 -10 -4 -10
-20 0 -14 -6 -28 -14 -31 -16 -6 -28 -42 -16 -49 13 -8 -1 -45 -16 -45 -8 0
-11 -6 -8 -15 4 -8 1 -15 -5 -15 -6 0 -11 -7 -11 -16 0 -8 -18 -33 -39 -54
-21 -21 -36 -41 -33 -44 3 -3 0 -6 -6 -6 -7 0 -12 -6 -12 -13 0 -16 -45 -57
-63 -57 -7 0 -32 -18 -55 -40 -22 -22 -51 -40 -62 -40 -14 0 -19 -4 -14 -12 5
-7 2 -9 -9 -5 -8 3 -17 0 -20 -6 -7 -17 -134 -80 -146 -73 -5 4 -13 0 -18 -8
-5 -8 -24 -17 -43 -19 -19 -3 -48 -10 -63 -16 -16 -6 -41 -11 -55 -12 -62 -1
-102 -4 -102 -9 0 -3 -48 -5 -108 -5 -98 0 -109 2 -129 23 -13 12 -27 22 -32
22 -5 0 -29 20 -55 44 -42 40 -51 56 -47 79 0 4 -6 7 -14 7 -8 0 -15 8 -16 18
0 9 -2 26 -4 36 -6 33 -8 152 -3 162 3 5 6 34 7 64 1 30 9 65 17 78 11 17 12
22 2 22 -8 0 -9 3 -3 8 6 4 10 14 10 22 -1 8 5 32 12 53 7 21 12 41 11 45 -1
4 2 16 6 27 5 11 10 27 13 35 4 8 8 26 10 39 2 13 16 53 30 89 15 36 26 71 26
79 0 7 4 13 9 13 5 0 7 4 3 10 -3 5 7 33 22 62 15 29 28 60 30 69 4 26 82 187
93 194 6 3 8 10 6 14 -3 4 4 17 14 29 11 12 20 25 20 29 0 15 99 88 128 94 15
4 55 7 89 8 34 0 65 6 68 11 9 14 25 12 60 -6z"/>
<path d="M50460 25900 c0 -5 5 -10 10 -10 6 0 10 5 10 10 0 6 -4 10 -10 10 -5
0 -10 -4 -10 -10z"/>
<path d="M3913 25541 c-9 -135 -8 -201 3 -332 8 -90 17 -198 19 -240 3 -42 16
-130 29 -195 14 -66 27 -135 30 -154 2 -19 9 -57 16 -85 6 -27 13 -59 16 -69
6 -32 74 -240 85 -258 5 -10 9 -26 9 -36 0 -17 33 -107 62 -172 6 -14 12 -29
14 -35 1 -5 19 -46 40 -90 21 -44 39 -82 39 -85 3 -11 67 -146 76 -160 5 -8
17 -31 25 -50 9 -19 29 -53 45 -77 16 -23 29 -46 29 -52 0 -6 4 -11 8 -11 5 0
14 -11 20 -24 6 -14 24 -44 39 -68 15 -24 28 -45 28 -48 1 -5 34 -58 48 -75 4
-5 30 -41 57 -80 27 -38 58 -79 69 -91 12 -12 21 -24 21 -27 0 -3 10 -17 23
-30 12 -14 38 -46 57 -73 19 -26 44 -58 55 -71 27 -32 272 -281 310 -315 17
-15 46 -43 65 -63 19 -20 49 -44 65 -52 17 -8 41 -27 55 -42 46 -47 95 -86
133 -105 20 -11 37 -23 37 -27 0 -4 17 -17 38 -30 20 -12 45 -29 55 -38 10 -8
25 -16 34 -17 8 -2 27 -14 42 -27 28 -27 72 -54 141 -89 25 -12 51 -28 58 -35
7 -7 25 -16 40 -20 15 -3 38 -14 51 -25 13 -10 29 -18 37 -18 7 0 14 -4 16 -8
4 -10 103 -65 148 -81 19 -7 80 -35 135 -62 55 -27 113 -51 128 -53 16 -3 47
-14 70 -25 87 -41 189 -78 242 -88 17 -2 44 -11 60 -18 74 -32 206 -71 283
-85 31 -5 86 -16 122 -24 153 -36 198 -44 250 -45 54 -2 88 -4 260 -15 47 -3
139 -8 204 -11 66 -3 123 -8 128 -11 4 -3 8 -2 8 3 0 4 21 8 47 9 173 4 404
13 438 18 22 3 105 13 185 21 80 9 155 20 167 25 12 5 86 17 165 26 79 10 146
21 149 26 3 5 28 12 55 17 73 13 241 55 281 71 12 5 50 14 85 20 35 7 68 15
73 19 17 14 103 40 109 33 3 -3 6 0 6 6 0 7 7 12 15 12 17 0 185 63 228 85 16
8 33 15 39 15 11 0 77 29 131 57 15 8 27 11 27 6 0 -4 4 -3 8 3 6 10 49 32
242 124 30 14 73 38 95 51 22 14 55 32 73 40 17 8 32 18 32 24 0 6 15 17 33
25 17 7 41 22 51 32 10 9 40 27 65 39 25 12 58 32 73 45 16 12 38 26 50 30 12
3 31 16 43 28 33 32 70 63 99 81 14 10 23 21 20 26 -3 5 -1 8 4 7 5 -2 21 9
35 25 14 15 31 27 37 27 5 0 10 9 10 21 0 11 4 18 9 15 11 -7 33 18 24 27 -3
4 1 7 9 7 9 0 18 7 22 15 7 20 5 19 -43 -8 -23 -13 -38 -27 -34 -32 5 -4 3 -5
-4 -1 -6 3 -35 -8 -65 -25 -29 -17 -154 -85 -278 -151 -666 -356 -1279 -570
-1905 -663 -276 -42 -431 -53 -700 -49 -334 5 -387 10 -895 81 -19 3 -42 9
-51 14 -14 7 -35 12 -104 25 -94 17 -384 113 -540 179 -60 26 -136 56 -167 67
-32 11 -58 24 -58 29 0 5 -8 9 -17 9 -24 0 -499 236 -523 260 -11 11 -26 20
-34 20 -8 0 -21 6 -28 13 -7 7 -42 30 -78 51 -76 46 -145 96 -255 187 -44 36
-87 70 -96 75 -16 9 -192 168 -253 230 -44 44 -219 230 -231 246 -5 7 -30 40
-54 73 -25 33 -51 64 -58 68 -11 7 -73 92 -108 148 -20 32 -50 74 -63 88 -7 7
-22 32 -34 55 -11 22 -32 56 -46 74 -13 17 -21 32 -18 32 4 0 -1 12 -11 28
-51 76 -103 174 -123 228 -9 23 -20 48 -26 55 -11 15 -84 183 -84 194 0 3 -11
30 -24 58 -13 29 -27 68 -31 87 -4 19 -14 51 -23 70 -8 19 -17 44 -19 55 -2
11 -10 38 -19 60 -9 22 -18 47 -20 55 -1 8 -16 65 -32 125 -16 61 -33 130 -37
155 -4 25 -18 84 -31 132 -23 81 -38 145 -51 228 -3 19 -9 40 -13 45 -4 6 -6
21 -5 35 1 14 -1 30 -5 35 -5 6 -14 57 -21 115 -8 72 -18 113 -31 129 -10 13
-18 32 -18 41 0 10 -8 36 -18 58 l-18 41 -11 -168z"/>
<path d="M50568 25663 c6 -2 18 -2 25 0 6 3 1 5 -13 5 -14 0 -19 -2 -12 -5z"/>
<path d="M50775 25640 c-3 -5 1 -10 9 -10 9 0 16 5 16 10 0 6 -4 10 -9 10 -6
0 -13 -4 -16 -10z"/>
<path d="M51058 25593 c12 -2 32 -2 45 0 12 2 2 4 -23 4 -25 0 -35 -2 -22 -4z"/>
<path d="M52965 24740 c-3 -5 -1 -10 4 -10 6 0 11 5 11 10 0 6 -2 10 -4 10 -3
0 -8 -4 -11 -10z"/>
<path d="M14948 23883 c6 -2 10 -9 7 -14 -4 -5 1 -6 10 -2 13 5 14 7 3 14 -7
5 -17 8 -23 8 -5 0 -4 -3 3 -6z"/>
<path d="M13656 23291 c-3 -5 -25 -8 -48 -7 -143 5 -413 -100 -721 -281 -62
-36 -124 -73 -139 -82 -34 -19 -37 -34 -5 -22 12 5 53 14 91 20 62 11 83 21
200 101 l129 88 81 -62 c106 -81 118 -86 206 -84 111 2 368 -21 420 -37 25 -7
61 -17 80 -21 19 -3 45 -13 57 -21 13 -9 23 -13 23 -10 0 3 20 0 45 -8 35 -10
52 -11 78 -2 48 18 96 69 99 107 1 17 5 33 8 35 12 7 -8 125 -24 148 -9 12
-27 39 -41 60 -14 20 -33 37 -41 37 -9 0 -32 10 -51 21 -30 19 -39 20 -73 10
-95 -28 -240 -29 -286 0 -33 20 -79 25 -88 10z"/>
<path d="M17416 19272 c-2 -4 -1 -14 4 -22 7 -11 9 -9 7 8 -1 24 -3 26 -11 14z"/>
<path d="M19025 17840 c3 -5 8 -10 11 -10 2 0 4 5 4 10 0 6 -5 10 -11 10 -5 0
-7 -4 -4 -10z"/>
<path d="M29528 15713 c7 -3 16 -2 19 1 4 3 -2 6 -13 5 -11 0 -14 -3 -6 -6z"/>
<path d="M27138 15653 c12 -2 32 -2 45 0 12 2 2 4 -23 4 -25 0 -35 -2 -22 -4z"/>
<path d="M23855 9150 c3 -5 8 -10 11 -10 2 0 4 5 4 10 0 6 -5 10 -11 10 -5 0
-7 -4 -4 -10z"/>
</g>
</svg>
